<?xml version="1.0" standalone="no"?>
<!DOCTYPE svg PUBLIC "-//W3C//DTD SVG 20010904//EN"
 "http://www.w3.org/TR/2001/REC-SVG-20010904/DTD/svg10.dtd">
<svg version="1.0" xmlns="http://www.w3.org/2000/svg"
 width="500.000000pt" height="500.000000pt" viewBox="0 0 500.000000 500.000000"
 preserveAspectRatio="xMidYMid meet">
<metadata>
Created by potrace 1.14, written by Peter Selinger 2001-2017
</metadata>
<g transform="translate(0.000000,500.000000) scale(0.100000,-0.100000)"
fill="#000000" stroke="none">
<path d="M4170 2408 c-86 -124 -251 -288 -369 -367 -166 -110 -303 -170 -501
-219 -105 -25 -107 -25 -616 -29 -510 -4 -512 -4 -563 18 -28 12 -62 34 -75
49 -12 15 -92 163 -177 328 -85 165 -157 298 -160 294 -4 -4 -221 -423 -484
-931 -519 -1003 -506 -973 -471 -1066 21 -53 81 -110 133 -125 27 -8 359 -10
1178 -8 1266 4 1169 -1 1392 73 260 86 505 259 666 469 81 105 106 144 160
252 94 188 135 355 144 579 8 247 -33 448 -136 661 l-56 115 -65 -93z"/>
</g>
</svg>
