<svg width="373" height="150" viewBox="0 0 373 150" fill="none" xmlns="http://www.w3.org/2000/svg">
<path d="M44.7 74.3C48.4333 74.9667 51.6 76.9333 54.2 80.2C56.8 83.4667 58.1 87.1667 58.1 91.3C58.1 94.8333 57.1667 98.0333 55.3 100.9C53.5 103.7 50.8667 105.933 47.4 107.6C43.9333 109.2 39.9 110 35.3 110H7.5V40.5H34C38.7333 40.5 42.8 41.3 46.2 42.9C49.6 44.5 52.1667 46.6667 53.9 49.4C55.6333 52.0667 56.5 55.0667 56.5 58.4C56.5 62.4 55.4333 65.7333 53.3 68.4C51.1667 71.0667 48.3 73.0333 44.7 74.3ZM18.9 69.7H33C36.7333 69.7 39.6333 68.8667 41.7 67.2C43.8333 65.4667 44.9 63 44.9 59.8C44.9 56.6667 43.8333 54.2333 41.7 52.5C39.6333 50.7 36.7333 49.8 33 49.8H18.9V69.7ZM34.3 100.7C38.1667 100.7 41.2 99.7667 43.4 97.9C45.6 96.0333 46.7 93.4333 46.7 90.1C46.7 86.7 45.5333 84 43.2 82C40.8667 80 37.7667 79 33.9 79H18.9V100.7H34.3ZM81.8883 62.9C83.5549 60.1 85.7549 57.9333 88.4883 56.4C91.2883 54.8 94.5883 54 98.3883 54V65.8H95.4883C91.0216 65.8 87.6216 66.9333 85.2883 69.2C83.0216 71.4667 81.8883 75.4 81.8883 81V110H70.4883V54.9H81.8883V62.9ZM114.667 47.6C112.601 47.6 110.867 46.9 109.467 45.5C108.067 44.1 107.367 42.3667 107.367 40.3C107.367 38.2333 108.067 36.5 109.467 35.1C110.867 33.7 112.601 33 114.667 33C116.667 33 118.367 33.7 119.767 35.1C121.167 36.5 121.867 38.2333 121.867 40.3C121.867 42.3667 121.167 44.1 119.767 45.5C118.367 46.9 116.667 47.6 114.667 47.6ZM120.267 54.9V110H108.867V54.9H120.267ZM185.734 81.1C185.734 83.1667 185.601 85.0333 185.334 86.7H143.234C143.568 91.1 145.201 94.6333 148.134 97.3C151.068 99.9667 154.668 101.3 158.934 101.3C165.068 101.3 169.401 98.7333 171.934 93.6H184.234C182.568 98.6667 179.534 102.833 175.134 106.1C170.801 109.3 165.401 110.9 158.934 110.9C153.668 110.9 148.934 109.733 144.734 107.4C140.601 105 137.334 101.667 134.934 97.4C132.601 93.0667 131.434 88.0667 131.434 82.4C131.434 76.7333 132.568 71.7667 134.834 67.5C137.168 63.1667 140.401 59.8333 144.534 57.5C148.734 55.1667 153.534 54 158.934 54C164.134 54 168.768 55.1333 172.834 57.4C176.901 59.6667 180.068 62.8667 182.334 67C184.601 71.0667 185.734 75.7667 185.734 81.1ZM173.834 77.5C173.768 73.3 172.268 69.9333 169.334 67.4C166.401 64.8667 162.768 63.6 158.434 63.6C154.501 63.6 151.134 64.8667 148.334 67.4C145.534 69.8667 143.868 73.2333 143.334 77.5H173.834ZM220.053 64.2H209.853V110H198.353V64.2H191.853V54.9H198.353V51C198.353 44.6667 200.02 40.0667 203.353 37.2C206.753 34.2667 212.053 32.8 219.253 32.8V42.3C215.786 42.3 213.353 42.9667 211.953 44.3C210.553 45.5667 209.853 47.8 209.853 51V54.9H220.053V64.2Z" fill="#0A0A0D"/>
<path d="M231.5 106.4H257.6L256.9 110H226.3L238.8 39.8H243.3L231.5 106.4ZM300.42 55C305.02 55 308.92 55.9 312.12 57.7C315.387 59.4333 317.82 61.8 319.42 64.8C321.087 67.7333 321.92 71.0333 321.92 74.7C321.92 76.3 321.787 77.7667 321.52 79.1C321.12 81.5 320.72 83.3 320.32 84.5H273.42C273.154 86.6333 273.02 88.1667 273.02 89.1C273.02 94.8333 274.754 99.2333 278.22 102.3C281.687 105.367 286.054 106.9 291.32 106.9C296.587 106.9 301.254 105.6 305.32 103C309.454 100.333 312.387 96.7333 314.12 92.2H318.82C316.687 97.7333 313.12 102.233 308.12 105.7C303.187 109.1 297.354 110.8 290.62 110.8C283.954 110.8 278.587 108.867 274.52 105C270.52 101.133 268.52 95.8667 268.52 89.2C268.52 87.1333 268.72 85 269.12 82.8C270.12 77.1333 272.12 72.2 275.12 68C278.12 63.8 281.787 60.6 286.12 58.4C290.52 56.1333 295.287 55 300.42 55ZM316.72 81C317.187 79.0667 317.42 77.1 317.42 75.1C317.42 69.8333 315.72 65.8 312.32 63C308.987 60.2 304.754 58.8 299.62 58.8C295.82 58.8 292.154 59.6333 288.62 61.3C285.087 62.9667 282.02 65.4667 279.42 68.8C276.82 72.1333 275.02 76.2 274.02 81H316.72ZM350.82 82.6L363.52 110H358.32L347.22 86.2L327.92 110H323.12L345.52 82.6L333.02 55.7H338.22L349.02 78.9L367.92 55.7H372.72L350.82 82.6Z" fill="#C5EB03"/>
<line x1="7" y1="125.5" x2="364" y2="125.5" stroke="#C5EB03" stroke-width="3"/>
</svg>
