<?xml version="1.0" encoding="UTF-8"?>
<svg width="902px" height="333px" viewBox="0 0 902 333" version="1.1" xmlns="http://www.w3.org/2000/svg" xmlns:xlink="http://www.w3.org/1999/xlink">
    <!-- Generator: Sketch 63.1 (92452) - https://sketch.com -->
    <title>Brief Inline Light BG@2x</title>
    <desc>Created with Sketch.</desc>
    <defs>
        <path d="M158.69993,0 L14.8057287,0 C3.72833681,0 -3.41472171,11.7541807 1.66905633,21.6148273 L89.8564431,192.658031 C92.4977924,197.782578 97.7725794,201 103.527715,201 L158.69993,201 C214.093671,201 259,156.004784 259,100.5 C259,44.9952165 214.093671,0 158.69993,0" id="path-1"></path>
        <polygon id="path-3" points="0 0 356 0 356 256 0 256"></polygon>
    </defs>
    <g id="Brief-Inline-Light-BG" stroke="none" stroke-width="1" fill="none" fill-rule="evenodd">
        <path d="M30.8628936,312 C19.7427319,312 12.572094,300.303237 17.6755006,290.491704 L106.203379,120.30042 C108.854927,115.202524 114.15008,112 119.927435,112 L175.312671,112 C230.920287,112 276,156.771107 276,211.999437 C276,267.227766 230.920287,312 175.312671,312 L30.8628936,312 Z" id="Fill-1" fill="#FFFFFF"></path>
        <path d="M175.312671,11 L30.8628936,11 C19.7427319,11 12.572094,22.6957021 17.6755006,32.5072908 L106.203379,202.699533 C108.854927,207.798585 114.15008,211 119.927435,211 L175.312671,211 C230.920287,211 276,166.22864 276,111 C276,55.7713597 230.920287,11 175.312671,11" id="Fill-2" fill="#29AAE3"></path>
        <g id="Group-5" transform="translate(16.000000, 11.000000)">
            <mask id="mask-2" fill="white">
                <use xlink:href="#path-1"></use>
            </mask>
            <g id="Clip-4"></g>
            <path d="M158.69993,301 L14.8057287,301 C3.72833681,301 -3.41472171,289.244753 1.66905633,279.384162 L89.8564431,108.341922 C92.4977924,103.218537 97.7725794,100 103.527715,100 L158.69993,100 C214.093671,100 259,144.994963 259,200.499434 C259,256.003905 214.093671,301 158.69993,301" id="Fill-3" fill="#05FBC5" mask="url(#mask-2)"></path>
        </g>
        <g id="Group-9" transform="translate(85.000000, 56.000000)">
            <mask id="mask-4" fill="white">
                <use xlink:href="#path-3"></use>
            </mask>
            <g id="Clip-7"></g>
            <path d="M329.37899,72 C312.090228,72.3978378 302.680243,73.5316757 295.458696,77.6890811 C285.260633,83.5571892 277.95918,92.3593514 273.535358,104.105514 L273.535358,72 L226,72 L226,256 L273.535358,256 L273.535358,168.306595 C273.535358,150.70227 279.247671,138.100757 290.664308,130.521946 C302.090932,122.943135 315.046767,120.009081 329.538803,121.719784 L355,72 L329.37899,72" id="Fill-8" fill="#FFFFFF" mask="url(#mask-4)"></path>
        </g>
        <path d="M451,312 L498,312 L498,127 L451,127 L451,312 Z M475.81756,105 C468.032478,105 461.282704,102.143213 455.572193,96.4276605 C449.85575,90.7170525 447,83.9681522 447,76.1819484 C447,68.4016776 449.85575,61.5914686 455.572193,55.7542879 C461.282704,49.918096 468.032478,47 475.81756,47 C483.842929,47 490.710374,49.918096 496.426818,55.7542879 C502.137328,61.5914686 505,68.4016776 505,76.1819484 C505,83.9681522 502.137328,90.7170525 496.426818,96.4276605 C490.710374,102.143213 483.842929,105 475.81756,105 L475.81756,105 Z" id="Fill-10" fill="#FFFFFF"></path>
        <path d="M582,203 L670,203 C667.464687,190.882159 662.2348,181.85304 654.298468,175.910598 C646.360158,169.974286 637.328785,167 627.208305,167 C615.242972,167 605.348029,170.153091 597.530401,176.444968 C589.706838,182.745019 584.530367,191.594312 582,203 Z M581.740356,238.070506 C587.739707,260.028697 604.012885,271.006287 630.559891,271.006287 C647.637945,271.006287 682.089803,257.734753 690.865033,246.052107 L705.343864,274.509474 C688.259855,299.50684 663.105255,312 629.866169,312 C601.242961,312 578.278695,303.242033 560.967416,285.722082 C543.655144,268.203135 535,246.128438 535,219.501004 C535,193.105577 543.538035,171.092145 560.621051,153.45368 C577.700098,135.819233 599.626263,127 626.404509,127 C651.792334,127 672.738953,135.879494 689.243372,153.628438 C705.743821,171.382404 714,193.342604 714,219.501004 C714,225.342327 713.42041,231.533165 712.268177,238.070506 L581.740356,238.070506 L581.740356,238.070506 Z" id="Fill-11" fill="#FFFFFF"></path>
        <path d="M865.085379,94.5347433 C838.852447,92.5713661 825.740509,103.011737 825.740509,125.863849 L825.740509,127.707325 L889,127.885178 L865.085379,173.411549 L825.740509,173.411549 L825.740509,312 L777.856932,312 L777.856932,173.411549 L727,173.847189 L751.132969,127.707325 L777.856932,127.707325 L777.856932,125.863849 C777.856932,99.8213737 785.153975,80.0387248 799.758124,66.5228962 C814.356236,53.0110642 841.708075,43.9545498 889,47.9512464 L865.085379,94.5347433" id="Fill-12" fill="#FFFFFF"></path>
    </g>
</svg>