<svg width="387" height="177" viewBox="0 0 387 177" fill="none" xmlns="http://www.w3.org/2000/svg">
<path d="M44.7 74.3C48.4333 74.9667 51.6 76.9333 54.2 80.2C56.8 83.4667 58.1 87.1667 58.1 91.3C58.1 94.8333 57.1667 98.0333 55.3 100.9C53.5 103.7 50.8667 105.933 47.4 107.6C43.9333 109.2 39.9 110 35.3 110H7.5V40.5H34C38.7333 40.5 42.8 41.3 46.2 42.9C49.6 44.5 52.1667 46.6667 53.9 49.4C55.6333 52.0667 56.5 55.0667 56.5 58.4C56.5 62.4 55.4333 65.7333 53.3 68.4C51.1667 71.0667 48.3 73.0333 44.7 74.3ZM18.9 69.7H33C36.7333 69.7 39.6333 68.8667 41.7 67.2C43.8333 65.4667 44.9 63 44.9 59.8C44.9 56.6667 43.8333 54.2333 41.7 52.5C39.6333 50.7 36.7333 49.8 33 49.8H18.9V69.7ZM34.3 100.7C38.1667 100.7 41.2 99.7667 43.4 97.9C45.6 96.0333 46.7 93.4333 46.7 90.1C46.7 86.7 45.5333 84 43.2 82C40.8667 80 37.7667 79 33.9 79H18.9V100.7H34.3ZM81.8883 62.9C83.5549 60.1 85.7549 57.9333 88.4883 56.4C91.2883 54.8 94.5883 54 98.3883 54V65.8H95.4883C91.0216 65.8 87.6216 66.9333 85.2883 69.2C83.0216 71.4667 81.8883 75.4 81.8883 81V110H70.4883V54.9H81.8883V62.9ZM114.667 47.6C112.601 47.6 110.867 46.9 109.467 45.5C108.067 44.1 107.367 42.3667 107.367 40.3C107.367 38.2333 108.067 36.5 109.467 35.1C110.867 33.7 112.601 33 114.667 33C116.667 33 118.367 33.7 119.767 35.1C121.167 36.5 121.867 38.2333 121.867 40.3C121.867 42.3667 121.167 44.1 119.767 45.5C118.367 46.9 116.667 47.6 114.667 47.6ZM120.267 54.9V110H108.867V54.9H120.267ZM185.734 81.1C185.734 83.1667 185.601 85.0333 185.334 86.7H143.234C143.568 91.1 145.201 94.6333 148.134 97.3C151.068 99.9667 154.668 101.3 158.934 101.3C165.068 101.3 169.401 98.7333 171.934 93.6H184.234C182.568 98.6667 179.534 102.833 175.134 106.1C170.801 109.3 165.401 110.9 158.934 110.9C153.668 110.9 148.934 109.733 144.734 107.4C140.601 105 137.334 101.667 134.934 97.4C132.601 93.0667 131.434 88.0667 131.434 82.4C131.434 76.7333 132.568 71.7667 134.834 67.5C137.168 63.1667 140.401 59.8333 144.534 57.5C148.734 55.1667 153.534 54 158.934 54C164.134 54 168.768 55.1333 172.834 57.4C176.901 59.6667 180.068 62.8667 182.334 67C184.601 71.0667 185.734 75.7667 185.734 81.1ZM173.834 77.5C173.768 73.3 172.268 69.9333 169.334 67.4C166.401 64.8667 162.768 63.6 158.434 63.6C154.501 63.6 151.134 64.8667 148.334 67.4C145.534 69.8667 143.868 73.2333 143.334 77.5H173.834ZM220.053 64.2H209.853V110H198.353V64.2H191.853V54.9H198.353V51C198.353 44.6667 200.02 40.0667 203.353 37.2C206.753 34.2667 212.053 32.8 219.253 32.8V42.3C215.786 42.3 213.353 42.9667 211.953 44.3C210.553 45.5667 209.853 47.8 209.853 51V54.9H220.053V64.2Z" fill="white" fill-opacity="0.9"/>
<path d="M231.5 106.4H257.6L256.9 110H226.3L238.8 39.8H243.3L231.5 106.4ZM300.42 55C305.02 55 308.92 55.9 312.12 57.7C315.387 59.4333 317.82 61.8 319.42 64.8C321.087 67.7333 321.92 71.0333 321.92 74.7C321.92 76.3 321.787 77.7667 321.52 79.1C321.12 81.5 320.72 83.3 320.32 84.5H273.42C273.154 86.6333 273.02 88.1667 273.02 89.1C273.02 94.8333 274.754 99.2333 278.22 102.3C281.687 105.367 286.054 106.9 291.32 106.9C296.587 106.9 301.254 105.6 305.32 103C309.454 100.333 312.387 96.7333 314.12 92.2H318.82C316.687 97.7333 313.12 102.233 308.12 105.7C303.187 109.1 297.354 110.8 290.62 110.8C283.954 110.8 278.587 108.867 274.52 105C270.52 101.133 268.52 95.8667 268.52 89.2C268.52 87.1333 268.72 85 269.12 82.8C270.12 77.1333 272.12 72.2 275.12 68C278.12 63.8 281.787 60.6 286.12 58.4C290.52 56.1333 295.287 55 300.42 55ZM316.72 81C317.187 79.0667 317.42 77.1 317.42 75.1C317.42 69.8333 315.72 65.8 312.32 63C308.987 60.2 304.754 58.8 299.62 58.8C295.82 58.8 292.154 59.6333 288.62 61.3C285.087 62.9667 282.02 65.4667 279.42 68.8C276.82 72.1333 275.02 76.2 274.02 81H316.72ZM350.82 82.6L363.52 110H358.32L347.22 86.2L327.92 110H323.12L345.52 82.6L333.02 55.7H338.22L349.02 78.9L367.92 55.7H372.72L350.82 82.6Z" fill="#C5EB03"/>
<line x1="7" y1="125.5" x2="364" y2="125.5" stroke="#C5EB03" stroke-width="3"/>
<path d="M7.618 169V145.55H9.293V169H7.618ZM8.6565 158.079V156.404H20.281V158.079H8.6565ZM8.623 147.225V145.55H21.9225V147.225H8.623ZM26.8122 169V151.58H28.4872V169H26.8122ZM27.6497 147.928C27.1584 147.928 26.7787 147.794 26.5107 147.526C26.2427 147.258 26.1087 146.89 26.1087 146.421C26.1087 145.974 26.2427 145.617 26.5107 145.349C26.7787 145.059 27.1584 144.913 27.6497 144.913C28.141 144.913 28.5207 145.047 28.7887 145.315C29.0567 145.583 29.1907 145.952 29.1907 146.421C29.1907 146.868 29.0567 147.236 28.7887 147.526C28.5207 147.794 28.141 147.928 27.6497 147.928ZM34.155 169V151.58H35.763L35.9305 155.265H35.7295C35.9751 154.528 36.4218 153.858 37.0695 153.255C37.7171 152.63 38.4876 152.138 39.381 151.781C40.2966 151.401 41.257 151.211 42.262 151.211C43.4903 151.211 44.5288 151.468 45.3775 151.982C46.2485 152.496 46.8961 153.288 47.3205 154.36C47.7671 155.432 47.9905 156.795 47.9905 158.447V169H46.3155V158.514C46.3155 157.219 46.1368 156.158 45.7795 155.332C45.4445 154.483 44.942 153.858 44.272 153.456C43.602 153.032 42.7645 152.819 41.7595 152.819C40.8885 152.819 40.0956 152.976 39.381 153.288C38.6663 153.579 38.041 153.981 37.505 154.494C36.969 155.008 36.5558 155.6 36.2655 156.27C35.9751 156.918 35.83 157.61 35.83 158.347V169H34.9925C34.9701 169 34.892 169 34.758 169C34.6463 169 34.4453 169 34.155 169ZM59.7696 169.335C58.184 169.335 56.7658 168.944 55.5151 168.162C54.2645 167.381 53.2706 166.309 52.5336 164.946C51.819 163.584 51.4616 162.032 51.4616 160.29C51.4616 158.526 51.8301 156.962 52.5671 155.6C53.3265 154.238 54.3315 153.166 55.5821 152.384C56.8328 151.602 58.2286 151.211 59.7696 151.211C60.663 151.211 61.5116 151.345 62.3156 151.613C63.1196 151.881 63.8455 152.261 64.4931 152.752C65.1408 153.221 65.6991 153.78 66.1681 154.427C66.6371 155.075 66.9721 155.779 67.1732 156.538L66.5031 156.102L66.6706 151.58H68.2786V169H66.6036V164.645L67.1732 164.008C66.9721 164.745 66.6371 165.438 66.1681 166.085C65.6991 166.733 65.1408 167.303 64.4931 167.794C63.8455 168.285 63.1196 168.665 62.3156 168.933C61.5116 169.201 60.663 169.335 59.7696 169.335ZM60.0041 167.66C61.2771 167.66 62.4161 167.347 63.4211 166.722C64.4485 166.074 65.2525 165.203 65.8331 164.109C66.4361 162.992 66.7376 161.708 66.7376 160.256C66.7376 158.827 66.4473 157.565 65.8666 156.471C65.286 155.354 64.482 154.483 63.4546 153.858C62.4496 153.21 61.2995 152.886 60.0041 152.886C58.6865 152.886 57.514 153.21 56.4866 153.858C55.4816 154.483 54.6888 155.354 54.1081 156.471C53.5275 157.565 53.2371 158.827 53.2371 160.256C53.2371 161.663 53.5163 162.925 54.0746 164.042C54.6553 165.159 55.4481 166.041 56.4531 166.688C57.4805 167.336 58.6641 167.66 60.0041 167.66ZM73.1838 169V151.58H74.7918L74.9593 155.265H74.7583C75.0039 154.528 75.4506 153.858 76.0983 153.255C76.7459 152.63 77.5164 152.138 78.4098 151.781C79.3254 151.401 80.2858 151.211 81.2908 151.211C82.5191 151.211 83.5576 151.468 84.4063 151.982C85.2773 152.496 85.9249 153.288 86.3493 154.36C86.7959 155.432 87.0193 156.795 87.0193 158.447V169H85.3443V158.514C85.3443 157.219 85.1656 156.158 84.8083 155.332C84.4733 154.483 83.9708 153.858 83.3008 153.456C82.6308 153.032 81.7933 152.819 80.7883 152.819C79.9173 152.819 79.1244 152.976 78.4098 153.288C77.6951 153.579 77.0698 153.981 76.5338 154.494C75.9978 155.008 75.5846 155.6 75.2943 156.27C75.0039 156.918 74.8588 157.61 74.8588 158.347V169H74.0213C73.9989 169 73.9208 169 73.7868 169C73.6751 169 73.4741 169 73.1838 169ZM99.167 169.335C97.492 169.335 95.9956 168.944 94.678 168.162C93.3826 167.381 92.3553 166.309 91.596 164.946C90.859 163.584 90.4905 162.021 90.4905 160.256C90.4905 158.492 90.859 156.929 91.596 155.566C92.3553 154.204 93.3938 153.143 94.7115 152.384C96.0291 151.602 97.5478 151.211 99.2675 151.211C100.697 151.211 101.992 151.491 103.153 152.049C104.337 152.607 105.32 153.389 106.101 154.394L105.029 155.7C104.538 155.097 103.98 154.595 103.354 154.193C102.729 153.769 102.059 153.445 101.344 153.221C100.63 152.998 99.8928 152.886 99.1335 152.886C97.8158 152.886 96.6433 153.21 95.616 153.858C94.5886 154.483 93.7735 155.354 93.1705 156.471C92.5675 157.565 92.266 158.827 92.266 160.256C92.266 161.686 92.5563 162.959 93.137 164.076C93.74 165.192 94.5551 166.074 95.5825 166.722C96.6098 167.347 97.76 167.66 99.033 167.66C99.77 167.66 100.496 167.548 101.21 167.325C101.925 167.102 102.595 166.789 103.22 166.387C103.846 165.963 104.415 165.449 104.929 164.846L106.001 166.152C105.197 167.157 104.181 167.939 102.952 168.497C101.746 169.056 100.485 169.335 99.167 169.335ZM109.973 169V151.58H111.648V169H109.973ZM110.811 147.928C110.319 147.928 109.94 147.794 109.672 147.526C109.404 147.258 109.27 146.89 109.27 146.421C109.27 145.974 109.404 145.617 109.672 145.349C109.94 145.059 110.319 144.913 110.811 144.913C111.302 144.913 111.682 145.047 111.95 145.315C112.218 145.583 112.352 145.952 112.352 146.421C112.352 146.868 112.218 147.236 111.95 147.526C111.682 147.794 111.302 147.928 110.811 147.928ZM124.251 169.335C122.665 169.335 121.247 168.944 119.996 168.162C118.745 167.381 117.752 166.309 117.015 164.946C116.3 163.584 115.943 162.032 115.943 160.29C115.943 158.526 116.311 156.962 117.048 155.6C117.807 154.238 118.812 153.166 120.063 152.384C121.314 151.602 122.71 151.211 124.251 151.211C125.144 151.211 125.993 151.345 126.797 151.613C127.601 151.881 128.326 152.261 128.974 152.752C129.622 153.221 130.18 153.78 130.649 154.427C131.118 155.075 131.453 155.779 131.654 156.538L130.984 156.102L131.152 151.58H132.76V169H131.085V164.645L131.654 164.008C131.453 164.745 131.118 165.438 130.649 166.085C130.18 166.733 129.622 167.303 128.974 167.794C128.326 168.285 127.601 168.665 126.797 168.933C125.993 169.201 125.144 169.335 124.251 169.335ZM124.485 167.66C125.758 167.66 126.897 167.347 127.902 166.722C128.929 166.074 129.733 165.203 130.314 164.109C130.917 162.992 131.219 161.708 131.219 160.256C131.219 158.827 130.928 157.565 130.348 156.471C129.767 155.354 128.963 154.483 127.936 153.858C126.931 153.21 125.78 152.886 124.485 152.886C123.167 152.886 121.995 153.21 120.968 153.858C119.963 154.483 119.17 155.354 118.589 156.471C118.008 157.565 117.718 158.827 117.718 160.256C117.718 161.663 117.997 162.925 118.556 164.042C119.136 165.159 119.929 166.041 120.934 166.688C121.961 167.336 123.145 167.66 124.485 167.66ZM137.732 169V144.21H139.407V169H137.732ZM154.933 169V145.55H163.475C164.994 145.55 166.412 145.84 167.73 146.421C169.048 147.002 170.198 147.817 171.18 148.866C172.185 149.894 172.967 151.122 173.525 152.551C174.106 153.981 174.396 155.555 174.396 157.275C174.396 158.972 174.106 160.547 173.525 161.998C172.967 163.428 172.185 164.667 171.18 165.717C170.198 166.744 169.048 167.548 167.73 168.129C166.412 168.71 164.994 169 163.475 169H154.933ZM156.608 167.895L156.139 167.325H163.308C164.581 167.325 165.776 167.079 166.892 166.588C168.031 166.097 169.025 165.404 169.874 164.511C170.723 163.595 171.393 162.534 171.884 161.328C172.375 160.1 172.621 158.749 172.621 157.275C172.621 155.801 172.375 154.461 171.884 153.255C171.393 152.027 170.723 150.966 169.874 150.073C169.025 149.157 168.031 148.453 166.892 147.962C165.776 147.471 164.581 147.225 163.308 147.225H156.038L156.608 146.722V167.895ZM179.296 169V151.58H180.971V169H179.296ZM180.134 147.928C179.642 147.928 179.263 147.794 178.995 147.526C178.727 147.258 178.593 146.89 178.593 146.421C178.593 145.974 178.727 145.617 178.995 145.349C179.263 145.059 179.642 144.913 180.134 144.913C180.625 144.913 181.005 145.047 181.273 145.315C181.541 145.583 181.675 145.952 181.675 146.421C181.675 146.868 181.541 147.236 181.273 147.526C181.005 147.794 180.625 147.928 180.134 147.928ZM192.3 169.335C190.782 169.335 189.431 169.045 188.247 168.464C187.063 167.861 186.159 167.135 185.533 166.286L186.806 165.181C187.409 165.985 188.191 166.61 189.151 167.057C190.112 167.481 191.195 167.693 192.401 167.693C193.071 167.693 193.685 167.626 194.243 167.492C194.802 167.336 195.271 167.124 195.65 166.856C196.052 166.588 196.365 166.264 196.588 165.884C196.812 165.482 196.923 165.036 196.923 164.544C196.923 163.673 196.51 162.936 195.684 162.333C195.304 162.065 194.824 161.82 194.243 161.596C193.663 161.373 192.982 161.15 192.2 160.926C191.016 160.569 190.011 160.234 189.185 159.921C188.359 159.609 187.7 159.218 187.208 158.749C186.851 158.369 186.583 157.967 186.404 157.543C186.226 157.096 186.136 156.616 186.136 156.102C186.136 155.388 186.282 154.74 186.572 154.159C186.862 153.556 187.275 153.032 187.811 152.585C188.347 152.138 188.973 151.803 189.687 151.58C190.402 151.334 191.195 151.211 192.066 151.211C192.892 151.211 193.707 151.334 194.511 151.58C195.315 151.803 196.064 152.127 196.756 152.551C197.448 152.976 198.051 153.467 198.565 154.025L197.426 155.265C196.979 154.774 196.488 154.338 195.952 153.958C195.438 153.579 194.869 153.288 194.243 153.087C193.618 152.864 192.926 152.752 192.166 152.752C191.563 152.752 190.994 152.831 190.458 152.987C189.944 153.143 189.498 153.378 189.118 153.69C188.738 153.981 188.437 154.327 188.213 154.729C188.012 155.109 187.912 155.533 187.912 156.002C187.912 156.359 187.979 156.683 188.113 156.973C188.247 157.241 188.459 157.498 188.749 157.744C189.129 158.057 189.632 158.325 190.257 158.548C190.905 158.771 191.697 159.017 192.635 159.285C193.484 159.508 194.232 159.732 194.88 159.955C195.528 160.178 196.086 160.446 196.555 160.759C197.27 161.206 197.794 161.73 198.129 162.333C198.487 162.936 198.665 163.629 198.665 164.41C198.665 165.371 198.397 166.219 197.861 166.956C197.325 167.693 196.577 168.274 195.617 168.698C194.657 169.123 193.551 169.335 192.3 169.335ZM202.669 176.37V151.58H204.277L204.445 156.102L204.009 156.504C204.299 155.499 204.791 154.606 205.483 153.824C206.198 153.02 207.058 152.384 208.063 151.915C209.068 151.446 210.162 151.211 211.346 151.211C212.887 151.211 214.282 151.602 215.533 152.384C216.806 153.166 217.811 154.238 218.548 155.6C219.307 156.962 219.687 158.526 219.687 160.29C219.687 162.032 219.319 163.584 218.582 164.946C217.867 166.309 216.873 167.381 215.6 168.162C214.349 168.944 212.931 169.335 211.346 169.335C210.162 169.335 209.068 169.101 208.063 168.631C207.058 168.162 206.198 167.537 205.483 166.755C204.791 165.951 204.299 165.047 204.009 164.042L204.344 164.477V176.37H202.669ZM211.078 167.66C212.418 167.66 213.601 167.347 214.629 166.722C215.656 166.074 216.46 165.192 217.041 164.076C217.621 162.959 217.912 161.697 217.912 160.29C217.912 158.861 217.61 157.588 217.007 156.471C216.426 155.354 215.622 154.483 214.595 153.858C213.568 153.21 212.395 152.886 211.078 152.886C209.76 152.886 208.576 153.21 207.527 153.858C206.499 154.483 205.684 155.354 205.081 156.471C204.5 157.565 204.21 158.827 204.21 160.256C204.21 161.708 204.512 162.992 205.115 164.109C205.718 165.203 206.533 166.074 207.56 166.722C208.587 167.347 209.76 167.66 211.078 167.66ZM229.479 169.335C228.049 169.335 226.866 169.078 225.928 168.564C225.012 168.051 224.32 167.269 223.851 166.219C223.404 165.147 223.181 163.785 223.181 162.132V151.58H224.856V162.065C224.856 163.361 225.023 164.433 225.358 165.281C225.693 166.108 226.207 166.722 226.899 167.124C227.591 167.526 228.462 167.727 229.512 167.727C230.338 167.727 231.109 167.582 231.824 167.291C232.538 166.979 233.164 166.577 233.7 166.085C234.236 165.572 234.649 164.991 234.939 164.343C235.252 163.673 235.408 162.97 235.408 162.233V151.58H237.083V169H235.475L235.308 165.315H235.509C235.263 166.052 234.827 166.722 234.202 167.325C233.577 167.928 232.84 168.419 231.991 168.799C231.165 169.156 230.327 169.335 229.479 169.335ZM244.606 169V146.923H246.281V169H244.606ZM240.419 153.121V151.58H250.971V153.121H240.419ZM261.105 169.335C259.43 169.335 257.933 168.955 256.616 168.196C255.32 167.437 254.304 166.376 253.567 165.013C252.83 163.651 252.462 162.065 252.462 160.256C252.462 158.939 252.663 157.733 253.065 156.638C253.489 155.544 254.07 154.595 254.807 153.791C255.544 152.965 256.426 152.328 257.453 151.881C258.503 151.435 259.642 151.211 260.87 151.211C262.076 151.211 263.159 151.412 264.12 151.814C265.102 152.216 265.929 152.797 266.599 153.556C267.269 154.293 267.771 155.176 268.106 156.203C268.441 157.208 268.586 158.325 268.542 159.553L268.508 160.457H253.701V158.916H267.604L266.867 159.519V158.715C266.867 157.822 266.643 156.929 266.197 156.035C265.772 155.142 265.113 154.394 264.22 153.791C263.327 153.188 262.199 152.886 260.837 152.886C259.564 152.886 258.425 153.166 257.42 153.724C256.437 154.282 255.655 155.097 255.075 156.169C254.516 157.241 254.237 158.57 254.237 160.156C254.237 161.675 254.516 163.003 255.075 164.142C255.633 165.259 256.437 166.13 257.487 166.755C258.559 167.358 259.865 167.66 261.406 167.66C262.232 167.66 263.081 167.526 263.952 167.258C264.823 166.99 265.806 166.409 266.9 165.516L267.771 166.755C267.28 167.224 266.699 167.66 266.029 168.062C265.359 168.442 264.611 168.754 263.785 169C262.958 169.223 262.065 169.335 261.105 169.335ZM292.371 169.335C290.651 169.335 289.065 169.045 287.614 168.464C286.184 167.861 284.934 167.023 283.862 165.951C282.812 164.857 281.997 163.573 281.416 162.099C280.835 160.625 280.545 159.017 280.545 157.275C280.545 155.533 280.824 153.947 281.383 152.518C281.941 151.066 282.734 149.804 283.761 148.732C284.811 147.66 286.028 146.834 287.413 146.253C288.82 145.673 290.361 145.382 292.036 145.382C293.085 145.382 294.146 145.561 295.218 145.918C296.29 146.253 297.284 146.722 298.2 147.325C299.115 147.928 299.875 148.621 300.478 149.402L299.238 150.709C298.747 149.994 298.11 149.369 297.329 148.833C296.547 148.275 295.698 147.839 294.783 147.526C293.867 147.214 292.951 147.057 292.036 147.057C290.629 147.057 289.322 147.314 288.116 147.828C286.932 148.319 285.905 149.023 285.034 149.938C284.185 150.854 283.515 151.937 283.024 153.188C282.555 154.439 282.321 155.801 282.321 157.275C282.321 158.771 282.566 160.156 283.058 161.429C283.549 162.702 284.241 163.807 285.135 164.745C286.05 165.661 287.111 166.376 288.317 166.889C289.545 167.403 290.897 167.66 292.371 167.66C293.264 167.66 294.146 167.537 295.017 167.291C295.91 167.023 296.714 166.666 297.429 166.219C298.144 165.75 298.713 165.226 299.138 164.645L300.042 166.119C299.506 166.744 298.814 167.303 297.965 167.794C297.139 168.263 296.234 168.643 295.252 168.933C294.291 169.201 293.331 169.335 292.371 169.335ZM303.956 169V144.21H305.631V169H303.956ZM317.873 169.335C316.131 169.335 314.579 168.944 313.216 168.162C311.876 167.381 310.815 166.298 310.034 164.913C309.274 163.528 308.895 161.954 308.895 160.189C308.895 158.447 309.274 156.906 310.034 155.566C310.815 154.204 311.876 153.143 313.216 152.384C314.579 151.602 316.131 151.211 317.873 151.211C319.615 151.211 321.156 151.602 322.496 152.384C323.858 153.143 324.919 154.204 325.678 155.566C326.438 156.906 326.817 158.447 326.817 160.189C326.817 161.954 326.438 163.528 325.678 164.913C324.919 166.298 323.858 167.381 322.496 168.162C321.156 168.944 319.615 169.335 317.873 169.335ZM317.873 167.66C319.257 167.66 320.486 167.336 321.558 166.688C322.652 166.041 323.501 165.159 324.104 164.042C324.729 162.925 325.042 161.641 325.042 160.189C325.042 158.782 324.729 157.532 324.104 156.437C323.501 155.321 322.652 154.45 321.558 153.824C320.486 153.199 319.257 152.886 317.873 152.886C316.466 152.886 315.215 153.199 314.121 153.824C313.049 154.45 312.2 155.321 311.575 156.437C310.972 157.532 310.67 158.782 310.67 160.189C310.67 161.641 310.972 162.925 311.575 164.042C312.2 165.159 313.049 166.041 314.121 166.688C315.215 167.336 316.466 167.66 317.873 167.66ZM336.587 169.335C335.158 169.335 333.974 169.078 333.036 168.564C332.12 168.051 331.428 167.269 330.959 166.219C330.512 165.147 330.289 163.785 330.289 162.132V151.58H331.964V162.065C331.964 163.361 332.131 164.433 332.466 165.281C332.801 166.108 333.315 166.722 334.007 167.124C334.7 167.526 335.571 167.727 336.62 167.727C337.447 167.727 338.217 167.582 338.932 167.291C339.647 166.979 340.272 166.577 340.808 166.085C341.344 165.572 341.757 164.991 342.047 164.343C342.36 163.673 342.516 162.97 342.516 162.233V151.58H344.191V169H342.583L342.416 165.315H342.617C342.371 166.052 341.936 166.722 341.31 167.325C340.685 167.928 339.948 168.419 339.099 168.799C338.273 169.156 337.436 169.335 336.587 169.335ZM356.003 169.335C354.417 169.335 352.999 168.944 351.748 168.162C350.497 167.381 349.504 166.309 348.767 164.946C348.052 163.584 347.695 162.032 347.695 160.29C347.695 158.526 348.063 156.962 348.8 155.6C349.559 154.238 350.564 153.166 351.815 152.384C353.066 151.602 354.462 151.211 356.003 151.211C356.896 151.211 357.745 151.345 358.549 151.613C359.353 151.881 360.078 152.261 360.726 152.752C361.374 153.221 361.932 153.78 362.401 154.427C362.87 155.075 363.205 155.779 363.406 156.538L362.837 155.968V144.21H364.512V169H362.904L362.77 164.477L363.406 164.008C363.205 164.745 362.87 165.438 362.401 166.085C361.932 166.733 361.374 167.303 360.726 167.794C360.078 168.285 359.353 168.665 358.549 168.933C357.745 169.201 356.896 169.335 356.003 169.335ZM356.237 167.66C357.51 167.66 358.649 167.347 359.654 166.722C360.681 166.074 361.485 165.203 362.066 164.109C362.669 162.992 362.971 161.708 362.971 160.256C362.971 158.827 362.68 157.565 362.1 156.471C361.519 155.354 360.715 154.483 359.688 153.858C358.683 153.21 357.532 152.886 356.237 152.886C354.919 152.886 353.747 153.21 352.72 153.858C351.715 154.483 350.922 155.354 350.341 156.471C349.76 157.565 349.47 158.827 349.47 160.256C349.47 161.663 349.749 162.925 350.308 164.042C350.888 165.159 351.681 166.041 352.686 166.688C353.713 167.336 354.897 167.66 356.237 167.66Z" fill="white"/>
</svg>
