<?xml version="1.0" encoding="UTF-8"?>
<svg width="500px" height="500px" viewBox="0 0 500 500" version="1.1" xmlns="http://www.w3.org/2000/svg" xmlns:xlink="http://www.w3.org/1999/xlink">
    <!-- Generator: Sketch 63.1 (92452) - https://sketch.com -->
    <title>Brief Icon Bright BG@2x</title>
    <desc>Created with Sketch.</desc>
    <defs>
        <path d="M224.875963,0 L20.979546,0 C5.28301008,0 -4.83862111,16.6663756 2.36503349,30.6478894 L127.325539,273.171835 C131.0683,280.437983 138.542613,285 146.697572,285 L224.875963,285 C303.368252,285 367,221.200812 367,142.5 C367,63.7991875 303.368252,0 224.875963,0" id="path-1"></path>
    </defs>
    <g id="Brief-Icon-Bright-BG" stroke="none" stroke-width="1" fill="none" fill-rule="evenodd">
        <rect fill="#05FBC5" x="0" y="0" width="500" height="500"></rect>
        <path d="M95.093876,465 C79.3118003,465 69.1350104,448.332113 76.377922,434.350678 L202.019411,191.828098 C205.782569,184.563597 213.297613,180 221.497014,180 L300.101445,180 C379.021485,180 443,243.798828 443,322.499197 C443,401.199566 379.021485,465 300.101445,465 L95.093876,465 Z" id="Fill-1" fill="#1F2362"></path>
        <path d="M300.101445,36 L95.093876,36 C79.3118003,36 69.1350104,52.6663756 76.377922,66.6478894 L202.019411,309.171835 C205.782569,316.437983 213.297613,321 221.497014,321 L300.101445,321 C379.021485,321 443,257.200812 443,178.5 C443,99.7991875 379.021485,36 300.101445,36" id="Fill-2" fill="#29AAE3"></path>
        <g id="Group-5" transform="translate(74.000000, 36.000000)">
            <mask id="mask-2" fill="white">
                <use xlink:href="#path-1"></use>
            </mask>
            <g id="Clip-4"></g>
            <path d="M224.875963,428 L20.979546,428 C5.28301008,428 -4.83862111,411.332113 2.36503349,397.350678 L127.325539,154.828098 C131.0683,147.563597 138.542613,143 146.697572,143 L224.875963,143 C303.368252,143 367,206.798828 367,285.499197 C367,364.199566 303.368252,428 224.875963,428" id="Fill-3" fill="#FFFFFF" mask="url(#mask-2)"></path>
        </g>
    </g>
</svg>